# xmcd CD database file
#
# Track frame offsets:
#	151
#	19157
#	36970
#	71886
#	91231
#	141900
#	153838
#	202577
#
# Disc length: 2861 seconds
#
# Revision: 0
# Processed by: cddbd v1.4PL0 Copyright (c) Steve Scherf et al.
# Submitted via: CDex 1.50
#
DISCID=630b2b08
DTITLE=Yannick Rieu - Non Acoustic Project
DYEAR=2002
DGENRE=Jazz
TTITLE0=Groove 6.1
TTITLE1=BADT
TTITLE2=Inné
TTITLE3=J'irai, crachant sur vos bombes
TTITLE4=The Man with the Green Horn
TTITLE5=Interflûtes (le temps)
TTITLE6=Marc M.
TTITLE7=Louise
EXTD=YEAR: 2002
EXTT0=
EXTT1=
EXTT2=
EXTT3=
EXTT4=
EXTT5=
EXTT6=
EXTT7=
PLAYORDER=
